<svg xmlns="http://www.w3.org/2000/svg" viewBox="0 0 400 300"><g id="_24_question_outline" data-name="#24_question_outline"><rect x="208.89" y="209.97" width="14.44" height="31.88" fill="#70cc40"/><path d="M223.33,242.85H208.89a1,1,0,0,1-1-1V210a1,1,0,0,1,1-1h14.44a1,1,0,0,1,1,1v31.88A1,1,0,0,1,223.33,242.85Zm-13.44-2h12.44V211H209.89Z" fill="#093f68"/><path d="M151,210c1,.72,11.24,9.09,11.24,9.09s1.42,10.52,0,12.43-7.87,7.42-9.3,6,4-6.93,4-6.93a11.11,11.11,0,0,1-8.39-3.35C145,223.41,145,217.14,145,217.14Z" fill="#ffc9b0"/><path d="M153.6,238.71a1.86,1.86,0,0,1-1.37-.53c-1.49-1.49.49-4.45,2.52-6.76a11.76,11.76,0,0,1-6.93-3.55c-3.79-4-3.78-10.46-3.78-10.74a1,1,0,0,1,.23-.63l6-7.17a1,1,0,0,1,1.36-.17c1,.73,10.87,8.78,11.29,9.12a1,1,0,0,1,.35.64c.35,2.57,1.35,11.09-.18,13.17-1.16,1.56-6.5,6.41-9.25,6.61Zm3.34-9.17a1,1,0,0,1,.9.57,1,1,0,0,1-.19,1.13c-2.09,2.11-3.88,4.61-4,5.48,1.38,0,6.27-3.82,7.75-5.82.7-1,.48-6.53-.14-11.32-3.05-2.49-8.17-6.66-10.15-8.23l-5.1,6.14c.06,1.31.45,6.06,3.22,9a10.14,10.14,0,0,0,7.58,3Z" fill="#093f68"/><path d="M249.54,120.07c-10.08-6-39.38-17.41-42.69-18.69L200,119.2c6.2,2.4,20.43,8.1,30.62,12.72-7.71,5.15-73.52,25.6-85,31.45-14.22,7.28-28.38,16.39-25.69,28.78.52,2.4,4.19,15.23,25.07,31.26l11.65-15.15c-7-5.37-14.88-13.41-17.35-18.34,3.18-3.26,12.23-8.47,23-13.39v43.86h45.58V165.48c4.69-2.31,47.51-20.8,47.49-34.9A11.89,11.89,0,0,0,249.54,120.07Z" fill="#68e1fd"/><path d="M145,224.41a1,1,0,0,1-.61-.2c-21.15-16.24-24.9-29.38-25.44-31.85-2.84-13.06,11.66-22.43,26.21-29.88,5.41-2.77,22.37-8.6,40.32-14.77s36.44-12.54,42.87-15.7c-10-4.43-23-9.64-28.76-11.88a1,1,0,0,1-.57-1.3L205.92,101a1,1,0,0,1,1.29-.57c3.32,1.29,32.68,12.73,42.84,18.77h0a12.85,12.85,0,0,1,6.26,11.36c0,9.07-15,20.46-45.95,34.83l-1.54.71v54.28a1,1,0,0,1-1,1H162.24a1,1,0,0,1-1-1v-42.3c-9.56,4.48-17.45,9.06-20.71,12,2.57,4.53,9.72,12,16.72,17.36a1,1,0,0,1,.18,1.4L145.78,224A1,1,0,0,1,145,224.41Zm56.25-105.78c6.59,2.57,20.06,8,29.74,12.38a1,1,0,0,1,.14,1.74c-4.21,2.81-24,9.63-45,16.85-17.1,5.88-34.77,12-40.06,14.66-13.87,7.1-27.71,16-25.16,27.67.5,2.32,4,14.55,23.91,30.08l10.43-13.57c-6.4-5.07-14.25-12.89-16.84-18.07a1,1,0,0,1,.17-1.15c3.21-3.28,12.12-8.49,23.26-13.6a1,1,0,0,1,.95.07,1,1,0,0,1,.46.84v42.86h43.58V165.48a1,1,0,0,1,.56-.89c.42-.21,1.15-.55,2.13-1,20.45-9.49,44.81-22.92,44.8-33a10.91,10.91,0,0,0-5.28-9.65c-9.38-5.58-35.6-15.92-41.61-18.26Z" fill="#093f68"/><polygon points="181.45 151.93 181.45 220.39 192.55 220.39 192.55 153.44 181.45 151.93" fill="#fff"/><path d="M192.55,221.39h-11.1a1,1,0,0,1-1-1V151.93a1,1,0,0,1,.34-.75,1,1,0,0,1,.79-.24l11.11,1.51a1,1,0,0,1,.86,1v66.95A1,1,0,0,1,192.55,221.39Zm-10.1-2h9.1V154.32l-9.1-1.25Z" fill="#093f68"/><path d="M181.85,148.59h10.05a0,0,0,0,1,0,0v5.79a4.27,4.27,0,0,1-4.27,4.27h-1.52a4.27,4.27,0,0,1-4.27-4.27v-5.79A0,0,0,0,1,181.85,148.59Z" transform="translate(-25.04 36.94) rotate(-10.58)" fill="#ffc9b0"/><path d="M186.26,159.77a5.26,5.26,0,0,1-5.17-4.3L180,149.79a1,1,0,0,1,.16-.75,1,1,0,0,1,.64-.42l9.88-1.85a1,1,0,0,1,1.17.8l1.06,5.69a5.28,5.28,0,0,1-4.21,6.15h0l-1.49.27A5.41,5.41,0,0,1,186.26,159.77Zm2.29-1.35h0Zm-6.37-8,.88,4.71a3.28,3.28,0,0,0,3.81,2.61l1.49-.28a3.27,3.27,0,0,0,2.62-3.81l-.88-4.71Z" fill="#093f68"/><path d="M146.38,129.51c-1-3-3.83-4.32-5.5-6.89a16.42,16.42,0,0,1-2.19-12.11,14.65,14.65,0,0,1-5.16-18.25,32,32,0,0,0,1.87-3.75A19.14,19.14,0,0,0,136,83c.17-3.94,1.1-8,3.51-11.09s6.52-5.12,10.36-4.23c1.08-4.53,5.56-7.32,9.81-9.23,2.83-1.27,5.84-2.4,8.94-2.29s7.51,4.6,7.51,4.6S186.05,57.4,190.9,59s10.69,10.32,10.69,10.32,3.09.87,4,1A13.49,13.49,0,0,1,211.4,73c5.71,4.5,8.4,15.65,3.73,21.67,0,0,2.13,4,2.27,4.43a12.34,12.34,0,0,1,.61,5.24c-.37,3.72-2,7.39-1.94,11.17l-6.32.08c-8.78.1-19,4.16-27.54,6l-21.06,4.62c-3.45.75-10,3.64-13.54,3A4,4,0,0,0,146.38,129.51Z" fill="#725858"/><path d="M146.38,130.5a1,1,0,0,1-.95-.68A9.48,9.48,0,0,0,142.6,126a15.94,15.94,0,0,1-2.56-2.88A17.3,17.3,0,0,1,137.58,111a15.76,15.76,0,0,1-5-19.17c.22-.44.47-.88.71-1.32a13.43,13.43,0,0,0,1.11-2.3A14.19,14.19,0,0,0,135,84l0-1c.2-4.81,1.45-8.74,3.72-11.67a11.82,11.82,0,0,1,10.44-4.75c1.6-4.7,6.48-7.37,10.11-9,2.9-1.31,6-2.49,9.38-2.38,2.9.11,6.46,3.24,7.75,4.46,2.26-.71,10.35-3,14.82-1.52,4.63,1.56,9.86,8.78,11,10.4.83.22,2.89.79,3.62.93A14.38,14.38,0,0,1,212,72.24c5.8,4.56,8.83,15.84,4.31,22.5a30,30,0,0,1,2,4.07,13.21,13.21,0,0,1,.65,5.65,35.19,35.19,0,0,1-.95,4.91,26,26,0,0,0-1,6.15,1,1,0,0,1-1,1l-6.34.08c-5.78.06-12.25,1.9-18.5,3.68-3.09.88-6,1.72-8.82,2.33l-21.07,4.62c-1,.22-2.34.65-3.75,1.1-3.52,1.12-7.51,2.39-10.18,1.88a2,2,0,0,1-.35.12,3.47,3.47,0,0,1-.51.15Zm1.12-2.27a1.51,1.51,0,0,1,.3,0c2.19.42,6.08-.81,9.2-1.81,1.46-.47,2.84-.91,3.93-1.15L182,120.67c2.75-.6,5.64-1.43,8.7-2.3,6.38-1.82,13-3.69,19-3.76l5.37-.07a32,32,0,0,1,1-5.64,33.53,33.53,0,0,0,.9-4.64,11.26,11.26,0,0,0-.56-4.82c-.15-.41-1.82-3.64-2.12-4.15a1.74,1.74,0,0,1-.11-.18,1,1,0,0,1,.12-1c4.34-5.59,1.67-16.16-3.55-20.27a12.44,12.44,0,0,0-5.34-2.42c-1-.19-4-1-4.13-1.07a1,1,0,0,1-.56-.4c0-.08-5.71-8.42-10.18-9.93s-14,1.68-14.13,1.71a1,1,0,0,1-1-.24c-1.16-1.17-4.63-4.22-6.84-4.3-2.92-.11-5.81,1-8.49,2.2-5.51,2.48-8.45,5.2-9.25,8.55a1,1,0,0,1-1.2.74c-3.22-.74-7,.81-9.34,3.87-2,2.59-3.12,6.13-3.3,10.52l0,1a15.81,15.81,0,0,1-.62,4.79,15.47,15.47,0,0,1-1.26,2.62c-.23.41-.46.82-.67,1.24a13.65,13.65,0,0,0,4.8,17,1,1,0,0,1,.45,1,15.23,15.23,0,0,0,2.05,11.35A14.14,14.14,0,0,0,144,124.6a12.66,12.66,0,0,1,3,3.69A2.39,2.39,0,0,1,147.5,128.23Z" fill="#093f68"/><ellipse cx="152.92" cy="128.29" rx="9.77" ry="8.42" transform="translate(-20.96 30.27) rotate(-10.58)" fill="#ffc9b0"/><path d="M152.37,137.75a11.19,11.19,0,0,1-5.65-1.48,8.62,8.62,0,0,1-2.47-13.19,11.93,11.93,0,0,1,14.87-2.78,8.81,8.81,0,0,1,4.38,6c.95,5.1-3,10.14-8.85,11.23A12.64,12.64,0,0,1,152.37,137.75Zm1.09-16.93a10.37,10.37,0,0,0-1.91.18,9.51,9.51,0,0,0-5.74,3.33,6.63,6.63,0,0,0,1.91,10.21,9.61,9.61,0,0,0,6.56,1c4.75-.89,8-4.88,7.25-8.9a6.83,6.83,0,0,0-3.42-4.65A9.24,9.24,0,0,0,153.46,120.82Z" fill="#093f68"/><ellipse cx="208.89" cy="117.83" rx="9.77" ry="8.42" transform="translate(-18.09 40.37) rotate(-10.58)" fill="#ffc9b0"/><path d="M208.35,127.3a11.26,11.26,0,0,1-5.66-1.49,8.78,8.78,0,0,1-4.38-6c-1-5.1,3-10.14,8.85-11.23a11.53,11.53,0,0,1,7.93,1.27,8.85,8.85,0,0,1,4.39,6c1,5.1-3,10.14-8.86,11.23A11.72,11.72,0,0,1,208.35,127.3Zm1.09-16.94a10.37,10.37,0,0,0-1.91.18c-4.75.88-8,4.88-7.26,8.9a6.83,6.83,0,0,0,3.43,4.64,9.58,9.58,0,0,0,6.55,1c4.76-.89,8-4.88,7.26-8.9a6.84,6.84,0,0,0-3.43-4.65A9.2,9.2,0,0,0,209.44,110.36Z" fill="#093f68"/><path d="M186.2,150a29.45,29.45,0,0,1-34.37-23.54l-2.64-14.13c-.16-.85-.79-2.42-.61-3.27.33-1.63,1.57-1.73,3-2.91a23.31,23.31,0,0,0,7-11.47,13.2,13.2,0,0,0,15.21-6.45,10.81,10.81,0,0,0,18.15-2.5,8.29,8.29,0,0,0,5.57,5.07c1.84.48,5.64-.68,7.09.17,1,.57.92,1.81,1.15,3,.57,3.11,1.16,6.22,1.74,9.33l2.31,12.35A29.46,29.46,0,0,1,186.2,150Z" fill="#ffc9b0"/><path d="M180.72,151.48a30.47,30.47,0,0,1-29.87-24.87l-2.64-14.13c-.05-.23-.13-.53-.23-.85a6.56,6.56,0,0,1-.38-2.81,3.9,3.9,0,0,1,2.16-2.67,10.06,10.06,0,0,0,1.15-.8,22.15,22.15,0,0,0,6.66-11,1,1,0,0,1,.48-.61,1,1,0,0,1,.78-.08,12.16,12.16,0,0,0,14-5.94,1,1,0,0,1,.78-.54,1,1,0,0,1,.88.35A9.83,9.83,0,0,0,191,85.29a1,1,0,0,1,1-.59,1,1,0,0,1,.9.66,7.21,7.21,0,0,0,4.88,4.44,10.07,10.07,0,0,0,2.94,0c1.71-.16,3.33-.31,4.4.31a3.67,3.67,0,0,1,1.53,3c0,.22.06.45.1.67l4,21.67A30.46,30.46,0,0,1,186.38,151h0A31,31,0,0,1,180.72,151.48Zm-21.5-55.62a23.82,23.82,0,0,1-7,11,11.13,11.13,0,0,1-1.38,1c-.82.52-1.12.73-1.25,1.38a6,6,0,0,0,.35,1.85c.11.39.21.75.26,1l2.64,14.12A28.46,28.46,0,0,0,186,149h0a28.46,28.46,0,0,0,22.75-33.2l-4-21.67-.12-.76c-.12-.92-.22-1.37-.55-1.56-.51-.3-2-.16-3.2,0a11.25,11.25,0,0,1-3.63,0,9.27,9.27,0,0,1-5.37-3.92,11.8,11.8,0,0,1-17.91,2A14.37,14.37,0,0,1,159.22,95.86Z" fill="#093f68"/><circle cx="166.59" cy="119.31" r="2.73" fill="#093f68"/><circle cx="194.25" cy="114.14" r="2.73" fill="#093f68"/><path d="M179,127.1a1,1,0,0,1,0-2,12.83,12.83,0,0,0,3.83-.65c-.1-.88-1.61-3.44-3.4-5.73a1,1,0,1,1,1.57-1.23c1.29,1.64,4.24,5.66,3.77,7.58a1.59,1.59,0,0,1-.9,1.11,14.15,14.15,0,0,1-4.85.92Z" fill="#093f68"/><path d="M157.9,112.79a2,2,0,0,1-.07-4l13.25-.5a2,2,0,1,1,.16,4l-13.26.51Z" fill="#093f68"/><path d="M186.88,109a2,2,0,0,1-.34-4l14.59-2.51a2,2,0,0,1,.68,4L187.22,109Z" fill="#093f68"/><path d="M190.54,140.57a1,1,0,0,1-.8-.4c-6.11-8.18-15.59-4.1-16-3.93a1,1,0,1,1-.81-1.82c.11,0,11.33-4.92,18.41,4.55a1,1,0,0,1-.21,1.4A.92.92,0,0,1,190.54,140.57Z" fill="#093f68"/><rect x="162.24" y="220.39" width="45.55" height="21.45" fill="#093f68"/><path d="M207.8,242.85H162.24a1,1,0,0,1-1-1V220.39a1,1,0,0,1,1-1H207.8a1,1,0,0,1,1,1v21.46A1,1,0,0,1,207.8,242.85Zm-44.56-2H206.8V221.39H163.24Z" fill="#093f68"/><polygon points="158.66 156.25 211.36 228.81 215.42 220.39 166.38 153.62 158.66 156.25" fill="#ffbc0e"/><path d="M211.36,229.81a1,1,0,0,1-.81-.41l-52.7-72.56a1,1,0,0,1-.14-.89,1,1,0,0,1,.63-.64l7.71-2.64a1,1,0,0,1,1.13.36l49,66.77a1,1,0,0,1,.1,1l-4.06,8.41a1,1,0,0,1-.81.57Zm-51.09-73.05,50.92,70.11,3.06-6.37L166,154.8Z" fill="#093f68"/><rect x="223.33" y="209.97" width="3.96" height="17.66" fill="#70cc40"/><path d="M227.28,228.63h-3.95a1,1,0,0,1-1-1V210a1,1,0,0,1,1-1h3.95a1,1,0,0,1,1,1v17.66A1,1,0,0,1,227.28,228.63Zm-2.95-2h1.95V211h-1.95Z" fill="#093f68"/><path d="M235,181.64c0-.15,0-.31,0-.46a24,24,0,0,1-12.72-12.58.9.9,0,0,1,1.45-1c4,3.74,9.19,5.06,12.51,5.51a29.73,29.73,0,1,1-1.25,8.55Z" fill="#fff"/><path d="M264.7,212.35A30.74,30.74,0,0,1,234,181.84,25,25,0,0,1,221.37,169a1.9,1.9,0,0,1,3-2.16A21.47,21.47,0,0,0,235.54,172a30.72,30.72,0,1,1,29.16,40.37Zm-41.29-43.71a22.83,22.83,0,0,0,12,11.62,1,1,0,0,1,.62.93v.45a28.7,28.7,0,1,0,1.21-8.26,1,1,0,0,1-1.1.7A24,24,0,0,1,223.41,168.64Z" fill="#093f68"/><path d="M277.61,174.45a9.9,9.9,0,0,1-.42,3,9.47,9.47,0,0,1-1.18,2.41,11.85,11.85,0,0,1-1.85,2.06c-.71.65-1.53,1.32-2.44,2-.56.46-1,.86-1.39,1.21a4.45,4.45,0,0,0-.87,1.07,4,4,0,0,0-.45,1.15,6.68,6.68,0,0,0-.13,1.44v1.36h-8.16v-2a10.46,10.46,0,0,1,.26-2.43,7.25,7.25,0,0,1,.79-2,10.72,10.72,0,0,1,1.28-1.73,20.37,20.37,0,0,1,1.81-1.72l1.72-1.62a11,11,0,0,0,1.52-1.65,3.47,3.47,0,0,0,.62-2.07,3.54,3.54,0,0,0-1-2.66,4.4,4.4,0,0,0-6.09.49,6.18,6.18,0,0,0-1.2,3.38l-8.31-.89a14.16,14.16,0,0,1,1.43-5,11,11,0,0,1,2.91-3.55,12.1,12.1,0,0,1,4-2.12,16,16,0,0,1,4.77-.71,17.51,17.51,0,0,1,4.59.6,11.53,11.53,0,0,1,4,1.89,9.57,9.57,0,0,1,2.78,3.26A10,10,0,0,1,277.61,174.45Zm-7.68,23.11a4.76,4.76,0,0,1-1.47,3.53,5,5,0,0,1-3.6,1.43,5,5,0,0,1-3.59-1.41,5.17,5.17,0,0,1-1.12-1.57,4.43,4.43,0,0,1-.42-1.93,4.83,4.83,0,0,1,.39-1.91,4.77,4.77,0,0,1,1.1-1.59,5.3,5.3,0,0,1,1.65-1.08,5.12,5.12,0,0,1,2-.39,5,5,0,0,1,2,.39,5.72,5.72,0,0,1,1.62,1.05,4.74,4.74,0,0,1,1.1,1.57A4.8,4.8,0,0,1,269.93,197.56Z" fill="#f56132"/></g></svg>